<svg width="90" height="90" viewBox="0 0 91 91" fill="none" xmlns="http://www.w3.org/2000/svg">
<circle cx="71.1255" cy="87.368" r="2.8125" transform="rotate(179.464 71.1255 87.368)" fill="#9261DB"/>
<circle cx="87.9998" cy="87.21" r="2.8125" transform="rotate(179.464 87.9998 87.21)" fill="#9261DB"/>
<circle cx="54.2513" cy="87.526" r="2.8125" transform="rotate(179.464 54.2513 87.526)" fill="#9261DB"/>
<circle cx="37.377" cy="87.6839" r="2.8125" transform="rotate(179.464 37.377 87.6839)" fill="#9261DB"/>
<circle cx="20.5027" cy="87.8419" r="2.8125" transform="rotate(179.464 20.5027 87.8419)" fill="#9261DB"/>
<circle cx="3.4705" cy="71.1256" r="2.8125" transform="rotate(179.464 3.4705 71.1256)" fill="#9261DB"/>
<circle cx="20.3448" cy="70.9676" r="2.8125" transform="rotate(179.464 20.3448 70.9676)" fill="#9261DB"/>
<circle cx="37.0611" cy="53.9354" r="2.8125" transform="rotate(179.464 37.0611 53.9354)" fill="#9261DB"/>
<circle cx="37.219" cy="70.8097" r="2.8125" transform="rotate(179.464 37.219 70.8097)" fill="#9261DB"/>
<circle cx="54.0933" cy="70.6517" r="2.8125" transform="rotate(179.464 54.0933 70.6517)" fill="#9261DB"/>
<circle cx="69.0927" cy="70.5113" r="2.8125" transform="rotate(179.464 69.0927 70.5113)" fill="#9261DB"/>
<circle cx="3.31254" cy="54.2513" r="2.8125" transform="rotate(179.464 3.31254 54.2513)" fill="#9261DB"/>
<circle cx="20.1868" cy="54.0933" r="2.8125" transform="rotate(179.464 20.1868 54.0933)" fill="#9261DB"/>
<circle cx="3.15458" cy="37.377" r="2.8125" transform="rotate(179.464 3.15458 37.377)" fill="#9261DB"/>
<circle cx="20.0289" cy="37.2191" r="2.8125" transform="rotate(179.464 20.0289 37.2191)" fill="#9261DB"/>
<circle cx="19.8709" cy="20.3448" r="2.8125" transform="rotate(179.464 19.8709 20.3448)" fill="#9261DB"/>
<circle cx="2.99662" cy="20.5028" r="2.8125" transform="rotate(179.464 2.99662 20.5028)" fill="#9261DB"/>
<circle cx="2.83867" cy="3.6285" r="2.8125" transform="rotate(179.464 2.83867 3.6285)" fill="#9261DB"/>
<circle cx="3.62846" cy="87.9998" r="2.8125" transform="rotate(179.464 3.62846 87.9998)" fill="#9261DB"/>
</svg>
