<svg width="25" height="25" viewBox="0 0 15 15" fill="none" xmlns="http://www.w3.org/2000/svg">
<g clip-path="url(#clip0_16_41)">
<path d="M10.9375 2.81226C9.71875 2.81226 8.40625 3.06226 7.5 3.74976C6.59375 3.06226 5.28125 2.81226 4.0625 2.81226C3.15625 2.81226 2.19375 2.94976 1.3875 3.30601C0.93125 3.51226 0.625 3.95601 0.625 4.46226V11.5123C0.625 12.3248 1.3875 12.9248 2.175 12.7248C2.7875 12.5685 3.4375 12.4998 4.0625 12.4998C5.0375 12.4998 6.075 12.6623 6.9125 13.0748C7.2875 13.2623 7.7125 13.2623 8.08125 13.0748C8.91875 12.656 9.95625 12.4998 10.9312 12.4998C11.5562 12.4998 12.2063 12.5685 12.8188 12.7248C13.6063 12.931 14.3687 12.331 14.3687 11.5123V4.46226C14.3687 3.95601 14.0625 3.51226 13.6063 3.30601C12.8063 2.94976 11.8438 2.81226 10.9375 2.81226ZM13.125 10.7685C13.125 11.1623 12.7625 11.4498 12.375 11.381C11.9062 11.2935 11.4187 11.256 10.9375 11.256C9.875 11.256 8.34375 11.6623 7.5 12.1935V4.99976C8.34375 4.46851 9.875 4.06226 10.9375 4.06226C11.5125 4.06226 12.0813 4.11851 12.625 4.23726C12.9125 4.29976 13.125 4.55601 13.125 4.84976V10.7685Z" fill="url(#paint0_linear_16_41)"/>
<path d="M8.73755 6.88104C8.53755 6.88104 8.3563 6.75604 8.2938 6.55604C8.21255 6.31229 8.35005 6.04354 8.5938 5.96854C9.5563 5.65604 10.8 5.55604 11.9438 5.68729C12.2 5.71854 12.3875 5.94979 12.3563 6.20604C12.325 6.46229 12.0938 6.64979 11.8375 6.61854C10.825 6.49979 9.7188 6.59354 8.8813 6.86229C8.8313 6.86854 8.7813 6.88104 8.73755 6.88104Z" fill="url(#paint1_linear_16_41)"/>
<path d="M8.73755 8.54351C8.53755 8.54351 8.3563 8.41851 8.2938 8.21851C8.21255 7.97476 8.35005 7.70601 8.5938 7.63101C9.55005 7.31851 10.8 7.21851 11.9438 7.34976C12.2 7.38101 12.3875 7.61226 12.3563 7.86851C12.325 8.12476 12.0938 8.31226 11.8375 8.28101C10.825 8.16226 9.7188 8.25601 8.8813 8.52476C8.8313 8.53726 8.7813 8.54351 8.73755 8.54351Z" fill="url(#paint2_linear_16_41)"/>
<path d="M8.73755 10.206C8.53755 10.206 8.3563 10.081 8.2938 9.88099C8.21255 9.63724 8.35005 9.36849 8.5938 9.29349C9.55005 8.98099 10.8 8.88099 11.9438 9.01224C12.2 9.04349 12.3875 9.27474 12.3563 9.53099C12.325 9.78724 12.0938 9.96849 11.8375 9.94349C10.825 9.82474 9.7188 9.91849 8.8813 10.1872C8.8313 10.1997 8.7813 10.206 8.73755 10.206Z" fill="url(#paint3_linear_16_41)"/>
</g>
<defs>
<linearGradient id="paint0_linear_16_41" x1="7.49687" y1="2.81226" x2="7.49687" y2="13.2154" gradientUnits="userSpaceOnUse">
<stop stop-color="#916CC9"/>
<stop offset="1" stop-color="#341B5B" stop-opacity="0.8"/>
</linearGradient>
<linearGradient id="paint1_linear_16_41" x1="10.315" y1="5.63098" x2="10.315" y2="6.88104" gradientUnits="userSpaceOnUse">
<stop stop-color="#916CC9"/>
<stop offset="1" stop-color="#341B5B" stop-opacity="0.8"/>
</linearGradient>
<linearGradient id="paint2_linear_16_41" x1="10.315" y1="7.29346" x2="10.315" y2="8.54351" gradientUnits="userSpaceOnUse">
<stop stop-color="#916CC9"/>
<stop offset="1" stop-color="#341B5B" stop-opacity="0.8"/>
</linearGradient>
<linearGradient id="paint3_linear_16_41" x1="10.315" y1="8.95593" x2="10.315" y2="10.206" gradientUnits="userSpaceOnUse">
<stop stop-color="#916CC9"/>
<stop offset="1" stop-color="#341B5B" stop-opacity="0.8"/>
</linearGradient>
<clipPath id="clip0_16_41">
<rect width="15" height="15" fill="white" transform="translate(0 -0.000244141)"/>
</clipPath>
</defs>
</svg>
