<svg width="25" height="25" viewBox="0 0 15 15" fill="none" xmlns="http://www.w3.org/2000/svg">
<g clip-path="url(#clip0_16_38)">
<path d="M7.90625 9.79351C7.99375 9.56851 7.9375 9.31226 7.7625 9.13726L6.45625 7.84976L6.475 7.83101C7.5625 6.61851 8.3375 5.22476 8.79375 3.74976H10.0063C10.3438 3.74976 10.625 3.46851 10.625 3.13101V3.11851C10.625 2.78101 10.3438 2.49976 10.0063 2.49976H6.25V1.87476C6.25 1.53101 5.96875 1.24976 5.625 1.24976C5.28125 1.24976 5 1.53101 5 1.87476V2.49976H1.24375C0.90625 2.49976 0.625 2.78101 0.625 3.11851C0.625 3.46226 0.90625 3.73726 1.24375 3.73726H7.60625C7.1875 4.94976 6.525 6.09351 5.625 7.09351C5.11875 6.53726 4.69375 5.93101 4.3375 5.29351C4.2375 5.11226 4.05625 4.99976 3.85 4.99976C3.41875 4.99976 3.14375 5.46851 3.35625 5.84351C3.75 6.54976 4.23125 7.22476 4.79375 7.84976L2.0625 10.5435C1.8125 10.7873 1.8125 11.1873 2.0625 11.431C2.30625 11.6748 2.7 11.6748 2.95 11.431L5.625 8.74976L6.8875 10.0123C7.20625 10.331 7.75 10.2123 7.90625 9.79351ZM10.9375 6.24976C10.5625 6.24976 10.225 6.48101 10.0938 6.83726L7.8 12.9623C7.65 13.3435 7.9375 13.7498 8.34375 13.7498C8.5875 13.7498 8.80625 13.5998 8.89375 13.3685L9.45 11.8748H12.4188L12.9813 13.3685C13.0688 13.5935 13.2875 13.7498 13.5313 13.7498C13.9375 13.7498 14.225 13.3435 14.0813 12.9623L11.7875 6.83726C11.65 6.48101 11.3125 6.24976 10.9375 6.24976ZM9.925 10.6248L10.9375 7.91851L11.95 10.6248H9.925Z" fill="url(#paint0_linear_16_38)"/>
</g>
<defs>
<linearGradient id="paint0_linear_16_38" x1="7.37189" y1="1.24976" x2="7.37189" y2="13.7498" gradientUnits="userSpaceOnUse">
<stop stop-color="#916CC9"/>
<stop offset="1" stop-color="#341B5B" stop-opacity="0.8"/>
</linearGradient>
<clipPath id="clip0_16_38">
<rect width="15" height="15" fill="white" transform="translate(0 -0.000244141)"/>
</clipPath>
</defs>
</svg>
