<svg width="146" height="25" viewBox="0 0 146 25" fill="none" xmlns="http://www.w3.org/2000/svg">
<path d="M11.96 0.895996C13.4106 0.895996 14.5946 1.09866 15.512 1.504C16.4293 1.90933 17.2506 2.4 17.976 2.976C18.232 3.168 18.4453 3.264 18.616 3.264C19.0213 3.264 19.288 2.624 19.416 1.344H20.152C20.1093 2.176 20.0773 3.18933 20.056 4.384C20.0346 5.55733 20.024 7.12533 20.024 9.088H19.288C19.1386 7.808 18.904 6.69866 18.584 5.76C18.2853 4.8 17.72 3.97866 16.888 3.296C16.376 2.80533 15.736 2.42133 14.968 2.144C14.2213 1.86666 13.464 1.728 12.696 1.728C11.5226 1.728 10.52 2.03733 9.68798 2.656C8.85598 3.25333 8.17331 4.07466 7.63998 5.12C7.10664 6.16533 6.71198 7.34933 6.45598 8.672C6.19998 9.97333 6.07198 11.328 6.07198 12.736C6.07198 16.576 6.59464 19.3813 7.63998 21.152C8.70664 22.9227 10.232 23.808 12.216 23.808C12.728 23.808 13.176 23.744 13.56 23.616C13.944 23.488 14.2533 23.3387 14.488 23.168C14.7866 22.9547 14.9893 22.7307 15.096 22.496C15.2026 22.24 15.256 21.9093 15.256 21.504V18.368C15.256 17.3867 15.1706 16.6613 15 16.192C14.8506 15.7013 14.5413 15.3707 14.072 15.2C13.6026 15.0293 12.92 14.9333 12.024 14.912V14.272C12.472 14.2933 13.0053 14.3147 13.624 14.336C14.264 14.336 14.9253 14.3467 15.608 14.368C16.2906 14.368 16.92 14.368 17.496 14.368C18.392 14.368 19.2133 14.3573 19.96 14.336C20.7066 14.3147 21.3146 14.2933 21.784 14.272V14.912C21.3786 14.9333 21.0693 15.008 20.856 15.136C20.664 15.264 20.5253 15.52 20.44 15.904C20.376 16.288 20.344 16.8747 20.344 17.664V24H19.704C19.6826 23.6373 19.5973 23.2427 19.448 22.816C19.32 22.3893 19.096 22.176 18.776 22.176C18.6266 22.176 18.424 22.2187 18.168 22.304C17.9333 22.368 17.56 22.5493 17.048 22.848C16.2586 23.296 15.4266 23.68 14.552 24C13.6773 24.2987 12.76 24.448 11.8 24.448C9.32531 24.448 7.23464 23.9893 5.52798 23.072C3.82131 22.1547 2.53064 20.8427 1.65598 19.136C0.802643 17.408 0.375977 15.3387 0.375977 12.928C0.375977 10.496 0.866643 8.384 1.84798 6.592C2.85064 4.8 4.21598 3.40266 5.94398 2.4C7.69331 1.39733 9.69864 0.895996 11.96 0.895996Z" fill="#050505" fill-opacity="0.96"/>
<path d="M34.0885 1.28L41.8645 21.312C42.1631 22.08 42.4938 22.6133 42.8565 22.912C43.2405 23.1893 43.5818 23.3387 43.8805 23.36V24C43.2405 23.9573 42.4831 23.936 41.6085 23.936C40.7551 23.9147 39.8911 23.904 39.0165 23.904C38.0351 23.904 37.1071 23.9147 36.2325 23.936C35.3578 23.936 34.6645 23.9573 34.1525 24V23.36C35.2405 23.3173 35.9231 23.136 36.2005 22.816C36.4991 22.4747 36.4351 21.76 36.0085 20.672L30.5685 5.792L31.1445 4.96L26.2805 17.632C25.8111 18.8053 25.5231 19.7653 25.4165 20.512C25.3311 21.2587 25.3845 21.8347 25.5765 22.24C25.7898 22.6453 26.1205 22.9333 26.5685 23.104C27.0378 23.2533 27.5925 23.3387 28.2325 23.36V24C27.5285 23.9573 26.8565 23.936 26.2165 23.936C25.5765 23.9147 24.9258 23.904 24.2645 23.904C23.7951 23.904 23.3471 23.9147 22.9205 23.936C22.5151 23.936 22.1525 23.9573 21.8325 24V23.36C22.2805 23.2747 22.7391 22.9867 23.2085 22.496C23.6778 22.0053 24.1365 21.1733 24.5845 20L31.8805 1.28C32.2218 1.30133 32.5845 1.312 32.9685 1.312C33.3738 1.312 33.7471 1.30133 34.0885 1.28ZM36.3285 14.784V15.424H26.7925L27.1125 14.784H36.3285Z" fill="#050505" fill-opacity="0.96"/>
<path d="M44.1192 1.344C44.6739 1.36533 45.3992 1.38666 46.2952 1.408C47.1912 1.42933 48.0872 1.44 48.9832 1.44C50.0072 1.44 50.9992 1.42933 51.9592 1.408C52.9192 1.38666 53.6019 1.376 54.0072 1.376C56.6526 1.376 58.6259 1.84533 59.9272 2.784C61.2499 3.72266 61.9112 4.928 61.9112 6.4C61.9112 7.14666 61.6872 7.904 61.2392 8.672C60.7912 9.44 60.0979 10.1227 59.1592 10.72C58.2206 11.3173 57.0046 11.7547 55.5112 12.032V12.096C57.5166 12.2453 59.1059 12.608 60.2792 13.184C61.4526 13.76 62.2952 14.4533 62.8072 15.264C63.3192 16.0747 63.5752 16.9173 63.5752 17.792C63.5752 19.136 63.2232 20.2667 62.5192 21.184C61.8152 22.1013 60.8019 22.8053 59.4792 23.296C58.1566 23.7653 56.5779 24 54.7432 24C54.2312 24 53.4952 23.9893 52.5352 23.968C51.5752 23.9253 50.4126 23.904 49.0472 23.904C48.1086 23.904 47.1912 23.9147 46.2952 23.936C45.3992 23.936 44.6739 23.9573 44.1192 24V23.36C44.8019 23.3173 45.3139 23.232 45.6552 23.104C45.9966 22.976 46.2206 22.72 46.3272 22.336C46.4552 21.952 46.5192 21.376 46.5192 20.608V4.736C46.5192 3.94666 46.4552 3.37066 46.3272 3.008C46.2206 2.624 45.9859 2.368 45.6232 2.24C45.2819 2.09066 44.7806 2.00533 44.1192 1.984V1.344ZM53.5912 1.984C52.7592 1.984 52.2152 2.16533 51.9592 2.528C51.7246 2.89066 51.6072 3.62666 51.6072 4.736V20.608C51.6072 21.3547 51.6606 21.92 51.7672 22.304C51.8952 22.688 52.1086 22.944 52.4072 23.072C52.7272 23.2 53.1966 23.264 53.8152 23.264C55.3512 23.264 56.4712 22.784 57.1752 21.824C57.9006 20.8427 58.2632 19.456 58.2632 17.664C58.2632 16.0213 57.8472 14.752 57.0152 13.856C56.2046 12.96 54.8499 12.512 52.9512 12.512H50.2312C50.2312 12.512 50.2312 12.4267 50.2312 12.256C50.2312 12.064 50.2312 11.968 50.2312 11.968H52.9832C53.9859 11.968 54.7539 11.7333 55.2872 11.264C55.8206 10.7733 56.1939 10.1333 56.4072 9.344C56.6206 8.53333 56.7272 7.66933 56.7272 6.752C56.7272 5.17333 56.4819 3.98933 55.9912 3.2C55.5006 2.38933 54.7006 1.984 53.5912 1.984Z" fill="#050505" fill-opacity="0.96"/>
<path d="M65.5255 1.344C66.0588 1.36533 66.7735 1.38666 67.6695 1.408C68.5868 1.42933 69.4935 1.44 70.3895 1.44C71.4135 1.44 72.4055 1.42933 73.3655 1.408C74.3255 1.38666 75.0081 1.376 75.4135 1.376C77.3975 1.376 79.0401 1.6 80.3415 2.048C81.6641 2.47466 82.6455 3.104 83.2855 3.936C83.9468 4.768 84.2775 5.77066 84.2775 6.944C84.2775 7.66933 84.1281 8.40533 83.8295 9.152C83.5308 9.87733 83.0188 10.56 82.2935 11.2C81.5895 11.8187 80.6188 12.32 79.3815 12.704C78.1441 13.0667 76.5868 13.248 74.7095 13.248H71.6375V12.608H74.3895C75.6481 12.608 76.5975 12.3733 77.2375 11.904C77.8988 11.4133 78.3468 10.7733 78.5815 9.984C78.8375 9.17333 78.9655 8.27733 78.9655 7.296C78.9655 5.61066 78.6668 4.30933 78.0695 3.392C77.4721 2.45333 76.4481 1.984 74.9975 1.984C74.1655 1.984 73.6215 2.16533 73.3655 2.528C73.1308 2.89066 73.0135 3.62666 73.0135 4.736V20.608C73.0135 21.376 73.0668 21.952 73.1735 22.336C73.3015 22.72 73.5361 22.976 73.8775 23.104C74.2188 23.232 74.7308 23.3173 75.4135 23.36V24C74.8375 23.9573 74.1121 23.936 73.2375 23.936C72.3628 23.9147 71.4775 23.904 70.5815 23.904C69.5575 23.904 68.5868 23.9147 67.6695 23.936C66.7735 23.936 66.0588 23.9573 65.5255 24V23.36C66.2081 23.3173 66.7201 23.232 67.0615 23.104C67.4028 22.976 67.6268 22.72 67.7335 22.336C67.8615 21.952 67.9255 21.376 67.9255 20.608V4.736C67.9255 3.94666 67.8615 3.37066 67.7335 3.008C67.6268 2.624 67.3921 2.368 67.0295 2.24C66.6881 2.09066 66.1868 2.00533 65.5255 1.984V1.344ZM71.5735 12.704C72.4908 12.7253 73.2801 12.768 73.9415 12.832C74.6241 12.896 75.2215 12.96 75.7335 13.024C76.2455 13.0667 76.7041 13.0987 77.1095 13.12C79.0508 13.2907 80.4801 13.7067 81.3975 14.368C82.3361 15.0293 82.9441 16.0213 83.2215 17.344L83.9575 20.64C84.1495 21.4933 84.3521 22.0907 84.5655 22.432C84.7788 22.7733 85.0881 22.944 85.4935 22.944C85.7708 22.9227 85.9948 22.8587 86.1655 22.752C86.3575 22.624 86.5601 22.4427 86.7735 22.208L87.2215 22.592C86.6455 23.2533 86.0268 23.7227 85.3655 24C84.7041 24.2987 83.9041 24.448 82.9655 24.448C81.8135 24.448 80.8641 24.2027 80.1175 23.712C79.3708 23.2213 78.8801 22.3147 78.6455 20.992L78.0695 17.792C77.9201 16.896 77.7388 16.1173 77.5255 15.456C77.3121 14.7733 77.0135 14.24 76.6295 13.856C76.2668 13.4507 75.7548 13.248 75.0935 13.248H71.6375L71.5735 12.704Z" fill="#050505" fill-opacity="0.96"/>
<path d="M97.5697 1.344V1.984C96.8871 2.00533 96.3644 2.09066 96.0017 2.24C95.6604 2.368 95.4364 2.624 95.3297 3.008C95.2231 3.37066 95.1697 3.94666 95.1697 4.736V20.608C95.1697 21.376 95.2231 21.952 95.3297 22.336C95.4577 22.72 95.6924 22.976 96.0337 23.104C96.3751 23.232 96.8871 23.3173 97.5697 23.36V24C96.9937 23.9573 96.2684 23.936 95.3937 23.936C94.5191 23.9147 93.6337 23.904 92.7377 23.904C91.6924 23.904 90.7217 23.9147 89.8257 23.936C88.9511 23.936 88.2364 23.9573 87.6817 24V23.36C88.3644 23.3173 88.8764 23.232 89.2177 23.104C89.5591 22.976 89.7831 22.72 89.8897 22.336C90.0177 21.952 90.0817 21.376 90.0817 20.608V4.736C90.0817 3.94666 90.0177 3.37066 89.8897 3.008C89.7831 2.624 89.5484 2.368 89.1857 2.24C88.8444 2.09066 88.3431 2.00533 87.6817 1.984V1.344C88.2364 1.36533 88.9511 1.38666 89.8257 1.408C90.7217 1.42933 91.6924 1.44 92.7377 1.44C93.6337 1.44 94.5191 1.42933 95.3937 1.408C96.2684 1.38666 96.9937 1.36533 97.5697 1.344Z" fill="#050505" fill-opacity="0.96"/>
<path d="M116.833 1.344C116.748 2.28266 116.684 3.18933 116.641 4.064C116.62 4.93866 116.609 5.61066 116.609 6.08C116.609 6.50666 116.62 6.912 116.641 7.296C116.662 7.68 116.684 8 116.705 8.256H115.969C115.756 6.69866 115.425 5.472 114.977 4.576C114.529 3.65866 113.942 3.01866 113.217 2.656C112.513 2.272 111.681 2.08 110.721 2.08H109.409C108.79 2.08 108.321 2.13333 108.001 2.24C107.681 2.34666 107.468 2.56 107.361 2.88C107.254 3.2 107.201 3.69066 107.201 4.352V20.992C107.201 21.6533 107.254 22.144 107.361 22.464C107.468 22.784 107.681 22.9973 108.001 23.104C108.321 23.2107 108.79 23.264 109.409 23.264H110.977C111.937 23.264 112.78 23.0613 113.505 22.656C114.252 22.2293 114.881 21.5147 115.393 20.512C115.926 19.5093 116.332 18.1547 116.609 16.448H117.345C117.281 17.1307 117.249 18.0267 117.249 19.136C117.249 19.6267 117.26 20.32 117.281 21.216C117.302 22.112 117.366 23.04 117.473 24C116.385 23.9573 115.158 23.936 113.793 23.936C112.428 23.9147 111.212 23.904 110.145 23.904C109.612 23.904 108.929 23.904 108.097 23.904C107.265 23.904 106.369 23.9147 105.409 23.936C104.449 23.936 103.478 23.9467 102.497 23.968C101.516 23.968 100.588 23.9787 99.713 24V23.36C100.396 23.3173 100.908 23.232 101.249 23.104C101.59 22.976 101.814 22.72 101.921 22.336C102.049 21.952 102.113 21.376 102.113 20.608V4.736C102.113 3.94666 102.049 3.37066 101.921 3.008C101.814 2.624 101.58 2.368 101.217 2.24C100.876 2.09066 100.374 2.00533 99.713 1.984V1.344C100.588 1.36533 101.516 1.38666 102.497 1.408C103.478 1.408 104.449 1.41866 105.409 1.44C106.369 1.44 107.265 1.44 108.097 1.44C108.929 1.44 109.612 1.44 110.145 1.44C111.126 1.44 112.236 1.44 113.473 1.44C114.732 1.41866 115.852 1.38666 116.833 1.344ZM111.841 12.288C111.841 12.288 111.841 12.3947 111.841 12.608C111.841 12.8213 111.841 12.928 111.841 12.928H106.241C106.241 12.928 106.241 12.8213 106.241 12.608C106.241 12.3947 106.241 12.288 106.241 12.288H111.841ZM112.769 8.064C112.684 9.28 112.641 10.208 112.641 10.848C112.662 11.488 112.673 12.0747 112.673 12.608C112.673 13.1413 112.684 13.728 112.705 14.368C112.726 15.008 112.78 15.936 112.865 17.152H112.129C112.022 16.4053 111.82 15.712 111.521 15.072C111.244 14.432 110.838 13.92 110.305 13.536C109.772 13.1307 109.078 12.928 108.225 12.928V12.288C108.865 12.288 109.409 12.16 109.857 11.904C110.305 11.6267 110.668 11.2747 110.945 10.848C111.244 10.4 111.478 9.93066 111.649 9.44C111.82 8.94933 111.948 8.49066 112.033 8.064H112.769Z" fill="#050505" fill-opacity="0.96"/>
<path d="M130.074 1.344V1.984C129.349 2.00533 128.794 2.09066 128.41 2.24C128.048 2.368 127.802 2.624 127.674 3.008C127.546 3.37066 127.482 3.94666 127.482 4.736V20.992C127.482 21.6533 127.525 22.144 127.61 22.464C127.717 22.784 127.909 22.9973 128.186 23.104C128.485 23.2107 128.922 23.264 129.498 23.264H131.066C131.792 23.264 132.474 23.0933 133.114 22.752C133.754 22.4107 134.33 21.9307 134.842 21.312C135.354 20.672 135.781 19.9147 136.122 19.04C136.464 18.1653 136.72 17.1947 136.89 16.128H137.626C137.562 16.8533 137.53 17.792 137.53 18.944C137.53 19.4347 137.541 20.1493 137.562 21.088C137.584 22.0267 137.648 22.9973 137.754 24C136.666 23.9573 135.44 23.936 134.074 23.936C132.709 23.9147 131.493 23.904 130.426 23.904C129.893 23.904 129.21 23.904 128.378 23.904C127.546 23.904 126.65 23.9147 125.69 23.936C124.73 23.936 123.76 23.9467 122.778 23.968C121.797 23.968 120.869 23.9787 119.994 24V23.36C120.677 23.3173 121.189 23.232 121.53 23.104C121.872 22.976 122.096 22.72 122.202 22.336C122.33 21.952 122.394 21.376 122.394 20.608V4.736C122.394 3.94666 122.33 3.37066 122.202 3.008C122.096 2.624 121.861 2.368 121.498 2.24C121.157 2.09066 120.656 2.00533 119.994 1.984V1.344C120.528 1.36533 121.242 1.38666 122.138 1.408C123.056 1.42933 124.026 1.44 125.05 1.44C125.989 1.44 126.906 1.42933 127.802 1.408C128.72 1.38666 129.477 1.36533 130.074 1.344Z" fill="#050505" fill-opacity="0.96"/>
<path d="M142.789 19.52C143.621 19.52 144.282 19.744 144.773 20.192C145.263 20.6187 145.509 21.216 145.509 21.984C145.509 22.752 145.263 23.36 144.773 23.808C144.282 24.2347 143.621 24.448 142.789 24.448C141.957 24.448 141.295 24.2347 140.805 23.808C140.314 23.36 140.069 22.752 140.069 21.984C140.069 21.216 140.314 20.6187 140.805 20.192C141.295 19.744 141.957 19.52 142.789 19.52Z" fill="#050505" fill-opacity="0.96"/>
</svg>
